<?xml version="1.0" encoding="UTF-8" standalone="no"?>
<!-- Created with Inkscape (http://www.inkscape.org/) -->

<svg
   version="1.1"
   id="svg1140"
   width="64"
   height="64"
   viewBox="0 0 64 64"
   sodipodi:docname="Start.svg"
   inkscape:version="1.2.2 (b0a8486541, 2022-12-01)"
   xmlns:inkscape="http://www.inkscape.org/namespaces/inkscape"
   xmlns:sodipodi="http://sodipodi.sourceforge.net/DTD/sodipodi-0.dtd"
   xmlns="http://www.w3.org/2000/svg"
   xmlns:svg="http://www.w3.org/2000/svg">
  <defs
     id="defs1144" />
  <sodipodi:namedview
     id="namedview1142"
     pagecolor="#ffffff"
     bordercolor="#666666"
     borderopacity="1.0"
     inkscape:showpageshadow="2"
     inkscape:pageopacity="0.0"
     inkscape:pagecheckerboard="0"
     inkscape:deskcolor="#d1d1d1"
     showgrid="false"
     inkscape:zoom="6.7578125"
     inkscape:cx="1.4797688"
     inkscape:cy="14.20578"
     inkscape:window-width="1856"
     inkscape:window-height="1005"
     inkscape:window-x="0"
     inkscape:window-y="32"
     inkscape:window-maximized="1"
     inkscape:current-layer="g1146" />
  <g
     inkscape:groupmode="layer"
     inkscape:label="Image"
     id="g1146">
    <g
       id="start-here-kde">
      <rect
         style="fill:#ffffff;stroke-width:2.259;stroke-linecap:round;stroke-linejoin:bevel;stroke-miterlimit:50;paint-order:fill markers stroke"
         id="rect344"
         width="49.86821"
         height="45.13295"
         x="7.6947975"
         y="10.358381"
         rx="2" />
      <path
         id="path1267"
         style="fill:#5b64b3;fill-opacity:1;stroke-width:0.155581"
         d="m 31.793755,4.1958179 c -22.8033922,0 -24.0039892,0.01386 -24.8846912,0.285636 -1.542775,0.476087 -2.749644,1.181419 -3.866725,2.259869 -1.258482,1.214962 -1.949147,2.296789 -2.54763204,3.9904001 l -0.439394,1.243125 -0.04436,19.36978 c -0.03213,14.01808 0.0047,19.66509 0.133702,20.43849 0.113377,0.67973 0.431583,1.57437 0.87392504,2.458 1.309555,2.61596 3.819035,4.70919 6.393998,5.33349 0.735852,0.17841 4.9138312,0.21698 24.3033912,0.22547 25.923717,0.0114 24.480677,0.066 26.730987,-1.01158 1.65065,-0.79041 3.61392,-2.74986 4.42645,-4.41794 1.20451,-2.47277 1.12553,-0.89412 1.12553,-22.48139 0,-18.058695 -0.0179,-19.356648 -0.27864,-20.303272 -0.98714,-3.5838611 -3.67086,-6.2885801 -7.11691,-7.1722041 -0.71111,-0.182342 -4.77066,-0.217874 -24.809631,-0.217874 z M 15.596356,12.380817 c 0.200929,0.0078 0.250388,0.08124 0.250388,0.273176 0,0.600042 0.409483,0.798871 1.64484,0.798871 0.816518,0 1.158103,0.05708 1.163815,0.194475 0.0045,0.106962 0.0048,2.675557 9.11e-4,5.707863 -0.0053,4.089216 -0.05497,5.542741 -0.192347,5.627643 -0.128525,0.07943 -0.0066,0.332605 0.39837,0.826826 0.707598,0.863528 1.427888,1.429277 2.001885,1.572517 0.400161,0.0999 0.427847,0.16063 0.427847,0.93956 v 0.83291 l -0.661218,0.16925 c -0.363669,0.0931 -0.971174,0.27062 -1.350086,0.39473 -0.985297,0.32271 -0.99018,0.32113 -1.336109,-0.50504 -0.196481,-0.46924 -0.259885,-0.5002 -1.114285,-0.54453 l -0.905833,-0.0471 -0.07779,-1.86696 -0.07779,-1.86697 -0.427847,-0.04923 -0.427847,-0.04923 -0.02765,-5.823942 c -0.01528,-3.203164 -0.03278,-5.981466 -0.0389,-6.173997 -0.009,-0.284053 0.08409,-0.359114 0.494393,-0.398675 0.104387,-0.01006 0.188273,-0.01476 0.255249,-0.01215 z m -0.294144,2.00553 c -0.202168,0 -0.233371,0.613683 -0.233371,4.589628 0,3.975944 0.0312,4.589627 0.233371,4.589627 0.202168,0 0.233371,-0.613683 0.233371,-4.589627 0,-3.975945 -0.0312,-4.589628 -0.233371,-4.589628 z m 2.72266,0.466742 c -0.30343,0 -0.311161,0.103827 -0.311161,4.174847 0,2.296109 0.04657,4.221421 0.10362,4.278466 0.05705,0.05705 0.197068,0.10362 0.311161,0.10362 0.167836,0 0.207542,-0.816801 0.207542,-4.278467 0,-4.17474 -0.0075,-4.278466 -0.311162,-4.278466 z m 25.815744,0.427543 c 0.301896,0.0299 0.497884,0.244109 0.763014,0.757847 0.206768,0.400655 0.102232,0.525997 -0.438179,0.525997 -0.44553,0 -1.38371,0.831152 -1.121274,0.993346 0.08362,0.05168 0.195182,-0.01793 0.247653,-0.154671 0.05247,-0.136738 0.194646,-0.210664 0.316024,-0.164087 0.121376,0.04658 0.304272,-0.0159 0.406575,-0.139172 0.102304,-0.123268 0.317629,-0.224255 0.478289,-0.224255 0.160662,0 0.292017,-0.06358 0.292017,-0.141299 0,-0.07771 0.420068,-0.283029 0.933484,-0.456411 l 0.933483,-0.315415 0.0027,0.34003 c 0.0016,0.18692 0.211592,0.647794 0.466742,1.024339 0.551884,0.814461 0.592915,1.43894 0.123371,1.876388 -0.337082,0.314041 -0.653647,0.393757 -1.331855,0.33547 -0.192531,-0.01655 -0.350057,0.04277 -0.350057,0.131575 0,0.08881 0.08389,0.161354 0.186576,0.161354 0.134837,0 0.129433,0.05402 -0.01945,0.194476 -0.164915,0.15558 -0.220386,0.15558 -0.277431,0 -0.101431,-0.27663 -0.219293,-0.245122 -0.730804,0.194779 -0.495154,0.425835 -0.714699,0.488223 -0.714699,0.203593 0,-0.101705 -0.144343,-0.02994 -0.320581,0.159226 -0.176241,0.189172 -0.386274,0.303158 -0.466742,0.253426 -0.08047,-0.04973 -0.14616,0.01883 -0.14616,0.152239 0,0.133404 -0.105017,0.242486 -0.233371,0.242486 -0.128354,0 -0.233371,-0.07001 -0.233371,-0.15558 0,-0.312272 -0.290836,-0.145474 -0.339118,0.194476 -0.03385,0.23833 -0.155863,0.350056 -0.382266,0.350056 -0.182896,0 -0.477856,0.130982 -0.655444,0.291105 -0.418098,0.376986 -0.654207,0.269307 -1.027074,-0.468563 -0.543146,-1.07484 -0.658508,-1.158306 -1.185087,-0.858734 -0.490727,0.279177 -0.585736,0.656984 -0.23793,0.945639 0.119957,0.09956 0.262032,0.356143 0.31572,0.570057 0.109731,0.437202 0.399587,0.364911 0.399587,-0.09967 0,-0.166089 0.07001,-0.302046 0.15558,-0.302046 0.08557,0 0.155581,0.07001 0.155581,0.155581 0,0.08557 0.14596,0.15558 0.324227,0.15558 0.487694,0 0.276639,0.361193 -0.335774,0.574616 -0.293066,0.10213 -0.466596,0.189652 -0.385305,0.194475 0.08129,0.0048 0.06097,0.09583 -0.04528,0.202073 -0.153847,0.153849 -0.217961,0.152939 -0.315111,-0.0043 -0.09325,-0.150879 -0.295656,-0.100348 -0.859035,0.214532 -0.5532,0.30919 -0.870307,0.390274 -1.27169,0.325138 -0.487806,-0.07916 -0.534808,-0.05326 -0.534808,0.295664 0,0.256451 0.127514,0.440665 0.386825,0.558814 0.676335,0.30816 0.836188,0.727419 0.716825,1.880642 -0.05903,0.57036 -0.13911,1.06239 -0.177764,1.09332 -0.03865,0.0309 -0.840318,0.3225 -1.781579,0.64784 -2.22047,0.7675 -2.205122,0.75827 -2.58744,1.57161 -0.17977,0.38244 -0.388677,0.73359 -0.46431,0.78033 -0.259226,0.16021 -0.150542,1.6778 0.155276,2.16689 0.720967,1.15302 0.94291,1.2521 2.061748,0.92133 0.169353,-0.0501 0.284009,0.0432 0.343674,0.27956 0.04926,0.19514 0.546359,0.73998 1.104562,1.21061 0.558204,0.47063 1.015951,0.97099 1.017351,1.11185 0.0029,0.27965 3.206519,3.32848 4.825733,4.59267 1.363554,1.06458 4.778551,3.29931 6.262119,4.09766 0.663163,0.35687 1.205753,0.70626 1.205753,0.77639 0,0.0701 0.1234,0.095 0.27409,0.0556 0.15068,-0.0394 0.67576,0.11247 1.16685,0.3373 0.67103,0.30721 0.89277,0.4895 0.89277,0.73354 0,0.1786 -0.40587,0.89094 -0.90189,1.58315 -1.16433,1.62488 -1.36138,1.94991 -1.48378,2.44736 -0.0556,0.22587 -0.19184,0.44537 -0.30296,0.48801 -0.19753,0.0758 -1.046592,-0.28725 -1.200889,-0.51354 -0.04278,-0.0628 -0.863268,-0.60948 -1.82321,-1.21486 -4.5771,-2.88653 -6.964688,-4.77402 -10.60926,-8.38707 -2.206043,-2.18697 -2.789293,-2.68529 -3.142607,-2.68529 -0.238595,0 -1.00377,0.18002 -1.700751,0.4002 -0.696979,0.22017 -1.286904,0.3777 -1.310583,0.35005 -0.02368,-0.0276 -0.182701,-0.37077 -0.353703,-0.76271 l -0.311161,-0.71257 0.446382,-0.16865 c 0.43793,-0.1653 0.446383,-0.19071 0.446383,-1.36163 0,-0.65633 -0.05251,-1.16503 -0.116686,-1.13039 -0.06418,0.0346 -0.417284,0.19232 -0.784588,0.35036 -0.598766,0.25763 -0.65831,0.33039 -0.576439,0.70315 0.05584,0.25426 0.01316,0.47622 -0.11,0.57158 -0.31835,0.24647 -4.0499,1.44945 -4.496036,1.44945 -0.221368,0 -0.529128,-0.14002 -0.684007,-0.31116 -0.154879,-0.17114 -0.379307,-0.31116 -0.498649,-0.31116 -0.285072,0 -1.182132,0.46261 -1.323953,0.68279 -0.166487,0.25847 0.03107,4.00696 0.233066,4.4225 0.133283,0.27419 0.129251,0.38869 -0.01671,0.4789 -0.303772,0.18774 -1.024772,3.40541 -0.852655,3.80534 0.325453,0.75623 0.173429,0.82993 -1.943542,0.94321 -1.08692,0.0582 -2.193201,0.14316 -2.458295,0.189 -0.361122,0.0625 -0.587707,-0.008 -0.9034,-0.27956 l -0.421465,-0.36281 0.308426,-0.70012 c 0.651466,-1.47971 0.988772,-3.24984 0.993346,-5.21195 0.006,-2.5716 -0.387341,-3.42057 -2.03531,-4.39211 -0.370372,-0.21835 -0.735928,-0.56108 -0.812241,-0.7618 -0.12066,-0.31736 -0.191319,-0.34497 -0.542405,-0.21149 -0.738831,0.2809 -0.948474,0.19256 -1.217904,-0.51293 -0.287699,-0.75333 -0.326349,-1.20058 -0.103619,-1.20058 0.08303,0 0.533562,-0.17503 1.001246,-0.38896 0.467683,-0.21392 0.933532,-0.38895 1.03528,-0.38895 0.123093,0 0.153451,-0.15802 0.09055,-0.47251 -0.07263,-0.36317 -0.03209,-0.49482 0.175028,-0.56824 0.148257,-0.0526 1.096585,-0.47041 2.107327,-0.92831 1.30279,-0.59022 1.948122,-0.80468 2.217023,-0.73719 0.214426,0.0538 0.379228,0.0268 0.379228,-0.062 0,-0.22733 0.90095,-0.72443 1.877603,-1.03588 0.464716,-0.14821 1.457656,-0.51812 2.206388,-0.82197 1.61625,-0.65591 1.657862,-0.80298 0.724725,-2.569507 -0.104337,-0.197519 -0.08472,-0.272266 0.07171,-0.272266 0.118602,0 0.30205,-0.104136 0.40779,-0.231548 0.105744,-0.127411 0.249709,-0.196387 0.31967,-0.15315 0.06996,0.04324 0.169171,0.0106 0.220609,-0.07262 0.05144,-0.08323 0.20767,-0.107678 0.347321,-0.05409 0.184553,0.07082 0.218837,0.0406 0.125194,-0.110911 -0.09415,-0.152337 -0.05914,-0.181689 0.130056,-0.109089 0.142391,0.05464 0.258896,0.03153 0.258896,-0.05135 0,-0.08288 0.111716,-0.150719 0.24826,-0.150719 0.136543,0 0.434091,-0.0987 0.661217,-0.219393 0.668093,-0.355015 1.569046,-0.729704 1.638458,-0.681272 0.03536,0.02467 0.205396,-0.08293 0.378013,-0.239145 0.172617,-0.156216 0.407579,-0.300474 0.522046,-0.320581 0.114467,-0.02011 0.612737,-0.224761 1.107297,-0.454891 0.494556,-0.230132 0.967134,-0.418427 1.050169,-0.418427 0.08303,0 0.151022,-0.07408 0.151022,-0.164696 0,-0.09062 0.08073,-0.114997 0.179282,-0.05409 0.09855,0.06091 0.272641,-0.01724 0.387128,-0.173813 0.114488,-0.156573 0.255189,-0.237988 0.312377,-0.180802 0.05719,0.05719 0.201186,0.02317 0.320277,-0.07566 0.27261,-0.226245 1.180754,-0.291662 1.30785,-0.0942 0.09743,0.151372 0.821736,-0.124933 2.543073,-0.970252 0.689467,-0.338587 0.958019,-0.406789 1.047739,-0.265581 0.08784,0.138246 0.121341,0.126 0.123068,-0.04497 0.0013,-0.129162 0.142452,-0.322184 0.313591,-0.429062 0.259525,-0.162076 0.311161,-0.155329 0.311161,0.04042 0,0.129079 -0.116584,0.234586 -0.2592,0.234586 -0.142613,0 -0.215002,0.0445 -0.160746,0.09876 0.05426,0.05426 0.522248,-0.05986 1.039838,-0.253427 0.810479,-0.303099 0.913531,-0.384802 0.743868,-0.589504 -0.175588,-0.211854 -0.202513,-0.20985 -0.247348,0.01975 -0.02767,0.141679 -0.115181,0.25768 -0.194476,0.25768 -0.209405,0 -0.104609,-0.357768 0.166825,-0.570056 0.142831,-0.111709 0.298783,-0.127405 0.403232,-0.04072 0.09369,0.07775 0.219949,0.09152 0.280775,0.03069 0.06082,-0.06083 0.06413,0.01051 0.0073,0.158621 -0.07812,0.203575 -0.04215,0.24593 0.147375,0.173204 0.319733,-0.122686 0.319841,-0.319825 3.03e-4,-0.498648 -0.22758,-0.127358 -0.226357,-0.149351 0.01398,-0.241576 0.322394,-0.123713 0.547571,-0.0024 0.547571,0.295057 0,0.205897 0.299901,0.12394 1.209396,-0.330001 0.02341,-0.01168 2.23e-4,-0.131599 -0.05166,-0.266797 -0.110473,-0.287889 -0.535417,-0.176726 -0.535417,0.140083 0,0.243229 -0.139181,0.271666 -0.428758,0.08782 -0.135352,-0.08593 -0.0093,-0.228549 0.410222,-0.464311 0.586497,-0.329631 1.457254,-0.507839 0.968125,-0.198123 -0.139815,0.08853 -0.174802,0.24 -0.09845,0.425417 0.07848,0.190595 0.143055,0.222307 0.191134,0.09359 0.03995,-0.106962 0.172011,-0.194476 0.293232,-0.194476 0.253641,0 0.294679,-0.246832 0.06472,-0.388952 -0.268563,-0.165981 -0.171415,-0.344494 0.291714,-0.536328 0.290259,-0.120228 0.452061,-0.304642 0.460665,-0.52478 0.0073,-0.18658 0.06889,-0.686488 0.137045,-1.110943 0.113591,-0.707416 0.16559,-0.780022 0.623234,-0.873621 0.1306,-0.02671 0.243041,-0.03731 0.343674,-0.02735 z m 4.20797,0.377405 c 0.09667,0.01263 0.163411,0.07953 0.25768,0.208453 0.316671,0.433074 0.277466,0.491046 -0.51536,0.76119 -0.881677,0.300422 -0.817919,0.299364 -0.928015,0.01246 -0.117962,-0.307404 0.149592,-0.616155 0.748428,-0.864202 0.214013,-0.08865 0.340598,-0.130529 0.437267,-0.117901 z m -2.636363,1.245251 c -0.103307,-0.03444 -0.2658,0.01511 -0.360995,0.110305 -0.0952,0.0952 -0.299043,0.173205 -0.453068,0.173205 -0.270323,0 -0.382349,0.312902 -0.183232,0.512019 0.05334,0.05334 0.341978,-0.08995 0.641162,-0.318152 0.305302,-0.232863 0.461554,-0.442236 0.356133,-0.477377 z m 0.475554,0.417213 c -0.07455,0.01398 -0.207126,0.123196 -0.46583,0.340332 l -0.529947,0.444559 0.426935,0.559725 c 0.354421,0.464669 0.465964,0.526902 0.658179,0.367377 0.185135,-0.153648 0.258,-0.149085 0.364035,0.02249 0.181188,0.293165 0.85991,-0.01614 0.971468,-0.442736 0.100323,-0.383636 -0.413503,-1.269865 -0.736275,-1.269865 -0.308177,0 -0.301887,0.44709 0.01124,0.793097 0.135855,0.150116 0.216629,0.400571 0.179587,0.556686 -0.06262,0.263892 -0.07626,0.261944 -0.192958,-0.02735 -0.06903,-0.171139 -0.213339,-0.416179 -0.320885,-0.544533 -0.107546,-0.128353 -0.21937,-0.384383 -0.248563,-0.568841 -0.02592,-0.163778 -0.04243,-0.244917 -0.11699,-0.230939 z m -1.892189,0.22243 c -0.186318,0.01129 -0.455498,0.15349 -0.455498,0.282902 0,0.177327 0.17127,0.173345 0.462184,-0.01064 0.125869,-0.07961 0.188319,-0.185133 0.138868,-0.234586 -0.03064,-0.03064 -0.08345,-0.04144 -0.145554,-0.03768 z m -0.867847,0.323012 c -0.308952,0.07208 -0.832295,0.325893 -0.832295,0.446079 0,0.06372 0.17937,0.101106 0.398675,0.08296 0.406383,-0.03363 0.808418,-0.363905 0.643593,-0.52873 -0.02806,-0.02806 -0.106989,-0.02433 -0.209973,-3.05e-4 z m 1.358292,0.265277 c -0.105249,-0.0093 -0.277973,0.03842 -0.546964,0.140692 -0.453998,0.17261 -0.511784,0.490981 -0.154364,0.8484 0.310895,0.310898 0.644304,0.332538 0.389255,0.02522 -0.10184,-0.12271 -0.120407,-0.257799 -0.04193,-0.3063 0.07721,-0.04772 0.220677,0.08921 0.318759,0.304476 0.24372,0.534911 0.234693,0.552308 -0.227294,0.436356 -0.376526,-0.0945 -0.39272,-0.07774 -0.226383,0.233067 l 0.178979,0.334863 0.53572,-0.4084 0.53572,-0.408399 -0.309338,-0.393205 c -0.170026,-0.216154 -0.309034,-0.488492 -0.309034,-0.605306 0,-0.125918 -0.03787,-0.192212 -0.143122,-0.201465 z m 1.414811,0.01094 c 0.04475,0.0099 0.09472,0.03759 0.144642,0.08751 0.111728,0.111735 0.114465,0.198997 0.0082,0.264671 -0.08711,0.05384 -0.205276,0.02186 -0.262542,-0.0708 -0.110876,-0.179401 -0.02457,-0.311005 0.109697,-0.281383 z m -2.944484,0.612295 c -0.0343,-0.0017 -0.07815,0.003 -0.132183,0.01337 -0.165781,0.03193 -0.294902,0.186143 -0.295057,0.352487 -1.54e-4,0.16263 -0.08963,0.314041 -0.198729,0.336382 -0.109101,0.02234 -0.126604,0.0049 -0.0389,-0.03859 0.08771,-0.0435 0.159531,-0.143386 0.159531,-0.221824 0,-0.184705 -0.421715,-0.185374 -0.53572,-9.12e-4 -0.141877,0.229561 0.08183,0.6363 0.350057,0.6363 0.183174,0 0.202231,0.04542 0.07323,0.17442 -0.09599,0.096 -0.137323,0.271024 -0.09207,0.388951 0.09632,0.250997 0.261545,0.269284 0.634477,0.0702 0.148585,-0.07932 0.392659,-0.182163 0.542405,-0.228509 0.322265,-0.09974 0.368488,-0.560638 0.05622,-0.560638 -0.118847,0 -0.206362,-0.122519 -0.194476,-0.272266 0.01188,-0.149746 -0.06355,-0.255559 -0.167431,-0.235194 -0.113845,0.02232 -0.151092,-0.06123 -0.0939,-0.210276 0.0522,-0.136026 0.03544,-0.198671 -0.06746,-0.203897 z m -0.309946,0.778815 c 0.07511,-0.0534 0.243542,0.06265 0.390775,0.298399 0.106877,0.171139 0.137853,0.311161 0.06867,0.311161 -0.162078,0 -0.499255,-0.336083 -0.499255,-0.497736 0,-0.05731 0.01477,-0.09402 0.03981,-0.111824 z m -1.429397,0.101493 c -0.101014,0.01938 -0.256853,0.0844 -0.477986,0.197209 l -0.622929,0.317847 0.237321,0.56793 c 0.130532,0.312406 0.317898,0.665353 0.416603,0.784285 0.152755,0.184058 0.19842,0.182505 0.305996,-0.0097 0.06951,-0.124209 0.302167,-0.269957 0.517184,-0.323924 0.467584,-0.117356 0.488811,-0.347234 0.07992,-0.869975 -0.167333,-0.213923 -0.305921,-0.477766 -0.307819,-0.586466 -0.0012,-0.07016 -0.04727,-0.09656 -0.148287,-0.07718 z m -3.188794,0.28989 c 0.04162,0.02015 0.06655,0.06135 0.06655,0.119419 0,0.111407 -0.105016,0.202378 -0.23337,0.202378 -0.128354,0 -0.233371,-0.05089 -0.233371,-0.11304 0,-0.06215 0.105017,-0.153121 0.233371,-0.202376 0.0669,-0.02567 0.125205,-0.02653 0.166824,-0.0064 z m 3.267496,0.124281 c 0.04153,-0.0064 0.06624,0.01281 0.06624,0.05834 0,0.08689 -0.105017,0.198095 -0.233371,0.24735 -0.128354,0.04926 -0.233371,0.06548 -0.233371,0.03586 0,-0.02962 0.105017,-0.141128 0.233371,-0.247653 0.06726,-0.05582 0.125599,-0.08754 0.167128,-0.0939 z m -1.940504,0.943816 c 0.05786,-0.01324 0.115903,-0.009 0.164393,0.02097 0.06453,0.03988 0.07798,0.175214 0.02978,0.300829 -0.104114,0.271315 -0.305359,0.296079 -0.453979,0.05561 -0.08628,-0.139605 0.08621,-0.337677 0.259807,-0.377404 z m -1.550336,0.176852 c -0.05024,-0.0073 -0.105203,-0.0016 -0.168343,0.01489 -0.379834,0.09933 -0.373686,0.05151 -0.101493,0.783373 0.119989,0.322616 0.258849,0.711982 0.308731,0.865417 0.07274,0.223751 0.15117,0.246608 0.395637,0.115774 0.386766,-0.206993 0.557372,-0.478375 0.381051,-0.606522 -0.07514,-0.05461 -0.255379,-0.35625 -0.400498,-0.670333 -0.156393,-0.338483 -0.264352,-0.480556 -0.415085,-0.502599 z m -5.665929,1.741469 c -0.289439,0.04062 -0.877182,0.307897 -2.298461,0.973897 -1.321671,0.619326 -2.788052,1.28706 -3.258684,1.48379 -0.878353,0.367167 -0.903757,0.418757 -0.593454,1.202711 0.20526,0.518569 0.288396,0.508389 2.284482,-0.284117 0.728084,-0.289072 1.391418,-0.483787 1.474065,-0.432708 0.08265,0.05108 0.104742,0.01933 0.04923,-0.0705 -0.121166,-0.19605 0.322836,-0.395478 0.557598,-0.250388 0.100813,0.06231 0.119819,0.02818 0.04832,-0.08751 -0.0723,-0.116985 -0.03666,-0.176994 0.09268,-0.155884 0.263625,0.04303 1.321537,-0.420224 1.455833,-0.637517 0.05509,-0.08913 0.217397,-0.142778 0.360692,-0.119115 0.339936,0.05613 0.447619,-1.07079 0.14221,-1.488045 -0.07447,-0.101736 -0.14084,-0.158986 -0.314503,-0.134613 z m 3.686835,0.812543 c -0.164008,0.0013 -0.403112,0.07328 -0.531466,0.160139 -0.170433,0.115334 -0.107494,0.13003 0.233371,0.05379 0.572059,-0.127959 0.696137,-0.217096 0.298095,-0.213924 z m -2.631804,1.566442 c -0.08557,0 -0.40062,0.13413 -0.700113,0.298095 -0.299493,0.163965 -0.474521,0.298096 -0.388952,0.298096 0.08557,0 0.400621,-0.134131 0.700113,-0.298096 0.299493,-0.163965 0.474521,-0.298095 0.388952,-0.298095 z m -1.711387,0.775776 c -0.08557,0 -0.330609,0.100142 -0.544532,0.222432 -0.213923,0.122289 -0.31894,0.222432 -0.233371,0.222432 0.08557,0 0.330609,-0.100143 0.544532,-0.222432 0.213924,-0.12229 0.31894,-0.222432 0.233371,-0.222432 z m 1.498375,0.455803 c -0.245556,0 -0.326957,0.09087 -0.313593,0.350053 0.01358,0.26343 0.03579,0.28268 0.08934,0.0778 0.03913,-0.14974 0.134638,-0.272263 0.2121,-0.272263 0.07746,0 0.06191,0.172853 -0.03434,0.384093 -0.09625,0.21124 -0.227297,0.35169 -0.29141,0.31207 -0.06412,-0.0396 -0.143345,0.20759 -0.17594,0.54939 -0.03259,0.3418 -0.0064,0.62141 0.05804,0.62141 0.229144,0 0.62047,-0.77544 0.703456,-1.39414 0.07562,-0.56382 0.04998,-0.628403 -0.247653,-0.628403 z m -3.657967,0.822263 c -0.07492,-0.0749 -1.185391,0.37458 -1.185391,0.47981 0,0.0403 0.280949,-0.0372 0.624146,-0.17199 0.343198,-0.13481 0.595701,-0.27336 0.561245,-0.30782 z m -10.666692,1.0447 c -0.08052,0 -0.189601,0.07 -0.242486,0.15558 -0.05288,0.0856 0.01306,0.15558 0.146465,0.15558 0.133404,0 0.242486,-0.07 0.242486,-0.15558 0,-0.0856 -0.06595,-0.15558 -0.146465,-0.15558 z m 6.253612,0.31967 c -0.07176,-0.0146 -0.171072,0.0258 -0.280775,0.12459 -0.17556,0.1581 -4.755657,1.97493 -5.981952,2.37291 -0.470632,0.15273 -0.717672,0.28133 -0.549091,0.28594 0.168581,0.005 1.583812,-0.48276 3.145039,-1.08329 1.561226,-0.60053 3.050968,-1.13437 3.310644,-1.18631 0.259678,-0.0519 0.472212,-0.19076 0.472212,-0.30842 0,-0.12114 -0.04432,-0.1908 -0.116077,-0.20542 z m -7.373974,2.66189 c -0.06795,-0.0205 -0.319872,0.11083 -0.989091,0.46097 -0.427847,0.22385 -1.232977,0.56975 -1.789177,0.76848 -0.982722,0.35113 -1.294141,0.56145 -1.157739,0.78216 0.03647,0.059 0.841327,-0.23854 1.78857,-0.66122 1.081489,-0.48258 1.834438,-0.73285 2.023763,-0.67276 0.169732,0.0539 0.301437,0.0233 0.301437,-0.0702 0,-0.0913 -0.06784,-0.16621 -0.150719,-0.16621 -0.08288,0 -0.106606,-0.11462 -0.05287,-0.25465 0.04122,-0.10741 0.0666,-0.17427 0.02583,-0.18657 z m 9.618649,0.65119 c -0.04278,-0.0428 -0.120995,0.0584 -0.173813,0.22486 -0.06323,0.19922 -0.426574,0.41584 -1.064146,0.63448 -0.930192,0.31899 -0.663474,0.32272 0.539061,0.008 0.520651,-0.13644 0.926257,-0.63958 0.698898,-0.86694 z m -2.439759,1.20362 c -0.128354,-0.005 -0.338388,0.0593 -0.466742,0.14221 -0.284396,0.18379 -0.03875,0.18379 0.388952,0 0.20517,-0.0882 0.231669,-0.13658 0.07779,-0.14221 z m 1.166855,0.22 c -0.265553,0 -0.305514,0.0912 -0.273482,0.62232 0.05384,0.89257 0.334127,1.47018 0.883345,1.81957 0.42689,0.27156 0.436786,0.2932 0.09025,0.19873 -0.714969,-0.19491 -1.095906,-0.54765 -1.515391,-1.40296 -0.228952,-0.46683 -0.504454,-0.84871 -0.611991,-0.84871 -0.366397,0 -1.683507,0.49853 -1.956608,0.74053 -0.193826,0.17175 -0.272266,0.47562 -0.272266,1.05473 0,0.75172 0.04713,0.85599 0.622625,1.37591 0.342525,0.30945 0.71042,0.56277 0.817407,0.56277 0.281509,0 2.122328,-0.55108 2.762164,-0.82683 1.241816,-0.53519 1.671646,-1.36025 1.222157,-2.34677 -0.247146,-0.54243 -0.622537,-0.64597 -0.936217,-0.2586 -0.350074,0.43233 -0.415153,0.40674 -0.472212,-0.18505 -0.03719,-0.38567 -0.122448,-0.50564 -0.359781,-0.50564 z m -14.230763,1.47802 c -0.08288,0 -0.110332,0.10501 -0.06108,0.23337 0.04925,0.12835 0.117088,0.23337 0.150719,0.23337 0.03363,0 0.06108,-0.10502 0.06108,-0.23337 0,-0.12836 -0.06783,-0.23337 -0.150718,-0.23337 z m 1.756663,1.12097 c -0.03207,-0.004 -0.05014,0.0178 -0.05014,0.0665 0,0.0884 0.04657,0.20762 0.10362,0.26466 0.05705,0.0571 0.139933,0.0673 0.184144,0.0231 0.04421,-0.0442 -0.0024,-0.16311 -0.10362,-0.26437 -0.05582,-0.0558 -0.101935,-0.0859 -0.134005,-0.0899 z" />
    </g>
  </g>
</svg>
