<?xml version="1.0" encoding="UTF-8" standalone="no"?>
<svg
   width="128"
   height="128"
   version="1.1"
   id="svg22"
   sodipodi:docname="icon.svg"
   inkscape:version="1.2.2 (b0a8486541, 2022-12-01)"
   xmlns:inkscape="http://www.inkscape.org/namespaces/inkscape"
   xmlns:sodipodi="http://sodipodi.sourceforge.net/DTD/sodipodi-0.dtd"
   xmlns="http://www.w3.org/2000/svg"
   xmlns:svg="http://www.w3.org/2000/svg">
  <defs
     id="defs26" />
  <sodipodi:namedview
     id="namedview24"
     pagecolor="#ffffff"
     bordercolor="#666666"
     borderopacity="1.0"
     inkscape:showpageshadow="2"
     inkscape:pageopacity="0.0"
     inkscape:pagecheckerboard="0"
     inkscape:deskcolor="#d1d1d1"
     showgrid="false"
     inkscape:zoom="4.6901067"
     inkscape:cx="45.841175"
     inkscape:cy="38.165443"
     inkscape:window-width="1920"
     inkscape:window-height="962"
     inkscape:window-x="0"
     inkscape:window-y="30"
     inkscape:window-maximized="1"
     inkscape:current-layer="g302" />
  <g
     id="g302">
    <rect
       width="124"
       height="124"
       x="2"
       y="2"
       fill="#363d52"
       stroke="#212532"
       stroke-width="4"
       rx="14"
       id="rect2" />
    <circle
       style="fill:#2ad4ff;stroke:#5a5274;stroke-width:0.623622;stroke-linecap:round;stroke-linejoin:bevel;stroke-miterlimit:50;paint-order:fill markers stroke"
       id="path361"
       cx="64"
       cy="64"
       r="40.937237" />
    <path
       sodipodi:type="star"
       style="fill:#2ad4ff;stroke:#5a5274;stroke-width:0.623622;stroke-linecap:round;stroke-linejoin:bevel;stroke-miterlimit:50;paint-order:fill markers stroke"
       id="path587"
       inkscape:flatsided="false"
       sodipodi:sides="30"
       sodipodi:cx="54.796196"
       sodipodi:cy="60.766209"
       sodipodi:r1="40.511417"
       sodipodi:r2="52.612228"
       sodipodi:arg1="0.89162503"
       sodipodi:arg2="0.99634479"
       inkscape:rounded="0.18"
       inkscape:randomized="0"
       d="m 80.243379,92.287881 c -1.824944,1.473262 5.109903,11.371359 3.140957,12.645789 -1.968945,1.27444 -8.159389,-9.105488 -10.250763,-8.043847 -2.091374,1.061641 2.634,12.185277 0.443112,13.022497 -2.190889,0.83721 -6.08795,-10.60295 -8.354349,-9.999329 -2.2664,0.603619 0.04298,12.466639 -2.2741,12.830049 -2.31708,0.36341 -3.750437,-11.637 -6.09281,-11.51778 -2.342373,0.11921 -2.549919,12.20314 -4.891922,12.07686 -2.342003,-0.12627 -1.249013,-12.16246 -3.564986,-12.53285 -2.315974,-0.3704 -5.031374,11.40632 -7.295944,10.79587 -2.26457,-0.61045 1.307,-12.156371 -0.881355,-13.000188 -2.188355,-0.843817 -7.292934,10.110988 -9.381098,9.043048 -2.088164,-1.06794 3.80589,-11.618987 1.840796,-12.89935 -1.965095,-1.280362 -9.235758,8.37375 -11.056254,6.89499 -1.820495,-1.47875 6.138446,-10.573789 4.482495,-12.234738 -1.655951,-1.66095 -10.774934,6.27054 -12.248197,4.445595 -1.473262,-1.824944 8.20272,-9.066474 6.928287,-11.035419 C 19.512815,80.810132 8.9440533,86.672357 7.8824123,84.580983 6.8207714,82.489609 17.790909,77.418074 16.953692,75.227186 16.116475,73.036297 4.5598415,76.573049 3.956221,74.306649 3.3526006,72.040249 15.137446,69.360359 14.774036,67.04328 14.410625,64.7262 2.3711996,65.782906 2.2519806,63.440533 2.1327617,61.09816 14.217261,60.927039 14.343539,58.585036 14.469818,56.243033 2.4737815,54.773509 2.8441746,52.457536 c 0.370393,-2.315974 12.2263944,0.02915 12.8368434,-2.235417 0.61045,-2.26457 -10.817914,-6.196096 -9.9740969,-8.384451 0.8438171,-2.188356 11.9531569,2.570526 13.0210969,0.482362 1.06794,-2.088164 -9.2932757,-8.309868 -8.012913,-10.274963 1.280362,-1.965094 11.157509,4.999556 12.636266,3.179061 1.478756,-1.820496 -7.362477,-10.060458 -5.701528,-11.716409 1.66095,-1.655951 9.874225,7.21008 11.69917,5.736818 1.824944,-1.473263 -5.109903,-11.371358 -3.140957,-12.645792 1.968945,-1.274433 8.159389,9.10549 10.250763,8.043849 2.091374,-1.061641 -2.634001,-12.185275 -0.443112,-13.022492 2.190889,-0.837217 6.08795,10.602945 8.354349,9.999325 2.2664,-0.603621 -0.04298,-12.4666375 2.2741,-12.830048 2.31708,-0.3634105 3.750437,11.637001 6.09281,11.517782 2.342373,-0.119219 2.549919,-12.2031468 4.891922,-12.076868 2.342003,0.1262788 1.249012,12.162465 3.564986,12.532858 2.315974,0.370393 5.031374,-11.4063215 7.295944,-10.7958724 2.26457,0.6104494 -1.307,12.1563694 0.881355,13.0001874 2.188355,0.843817 7.292934,-10.110985 9.381098,-9.043045 2.088164,1.06794 -3.80589,11.618984 -1.840796,12.899346 1.965095,1.280362 9.235758,-8.373749 11.056254,-6.894992 1.820495,1.478756 -6.138446,10.573791 -4.482495,12.234741 1.65595,1.660949 10.774934,-6.27054 12.248197,-4.445596 1.473262,1.824945 -8.20272,9.066474 -6.928287,11.03542 1.274433,1.968945 11.843196,-3.893279 12.904836,-1.801906 1.06164,2.091374 -9.908497,7.162909 -9.07128,9.353797 0.837217,2.190889 12.39385,-1.345862 12.99747,0.920537 0.60362,2.2664 -11.181224,4.94629 -10.817814,7.263369 0.363411,2.31708 12.402834,1.260374 12.522054,3.602748 0.11922,2.342373 -11.965279,2.513493 -12.091557,4.855497 -0.126279,2.342003 11.869757,3.811526 11.499367,6.1275 -0.3704,2.315973 -12.226397,-0.02915 -12.836846,2.235416 -0.61045,2.26457 10.817916,6.196097 9.974096,8.384452 -0.84382,2.188355 -11.953156,-2.570527 -13.021096,-0.482363 -1.06794,2.088164 9.293276,8.309868 8.012913,10.274963 -1.280362,1.965095 -11.157509,-4.999556 -12.636266,-3.17906 -1.478756,1.820495 7.362477,10.060458 5.701528,11.716408 -1.66095,1.655951 -9.874225,-7.21008 -11.69917,-5.736817 z"
       inkscape:transform-center-x="0.17321224"
       inkscape:transform-center-y="0.29376482"
       transform="translate(9.203804,3.2337914)" />
    <g
       aria-label="K"
       id="text645"
       style="font-size:77.3608px;line-height:190.135px;font-family:Hack;-inkscape-font-specification:Hack;fill:#ffffff;stroke:#000000;stroke-width:5.80208">
      <path
         d="M 46.553331,36.02342 H 57.69661 V 58.309979 L 75.148119,36.02342 H 87.764578 L 69.973105,58.234431 88.406733,92.419746 H 76.016917 L 62.644982,67.035733 57.69661,73.306189 V 92.419746 H 46.553331 Z"
         style="font-weight:bold;-inkscape-font-specification:'Hack Bold'"
         id="path690" />
    </g>
    <g
       id="g1532"
       transform="translate(-1.7057181,97.641779)">
      <path
         style="fill:none;stroke:#636095;stroke-width:5.1;stroke-linecap:butt;stroke-linejoin:miter;stroke-dasharray:none;stroke-opacity:1"
         d="M 37.739014,11.726812 91.469135,10.021094"
         id="path1375" />
      <circle
         style="fill:#ffffff;stroke:none;stroke-width:8.12222;stroke-linecap:round;stroke-linejoin:bevel;stroke-miterlimit:50;stroke-dasharray:none;stroke-opacity:1;paint-order:fill markers stroke"
         id="path1476"
         cx="89.230377"
         cy="10.340917"
         r="4.5841174" />
    </g>
  </g>
</svg>
