<?xml version="1.0" encoding="UTF-8" standalone="no"?>
<!-- Created with Inkscape (http://www.inkscape.org/) -->

<svg
   width="22"
   height="22"
   viewBox="0 0 5.8208332 5.8208333"
   version="1.1"
   id="svg1"
   xml:space="preserve"
   inkscape:version="1.2.2 (b0a8486541, 2022-12-01)"
   sodipodi:docname="chat-sotero.svg"
   xmlns:inkscape="http://www.inkscape.org/namespaces/inkscape"
   xmlns:sodipodi="http://sodipodi.sourceforge.net/DTD/sodipodi-0.dtd"
   xmlns="http://www.w3.org/2000/svg"
   xmlns:svg="http://www.w3.org/2000/svg"><sodipodi:namedview
     id="namedview1"
     pagecolor="#ffffff"
     bordercolor="#000000"
     borderopacity="0.25"
     inkscape:showpageshadow="2"
     inkscape:pageopacity="0.0"
     inkscape:pagecheckerboard="0"
     inkscape:deskcolor="#d1d1d1"
     inkscape:document-units="mm"
     inkscape:zoom="16.509158"
     inkscape:cx="18.171733"
     inkscape:cy="15.62769"
     inkscape:window-width="1863"
     inkscape:window-height="1021"
     inkscape:window-x="0"
     inkscape:window-y="30"
     inkscape:window-maximized="1"
     inkscape:current-layer="layer1"
     showgrid="false" /><defs
     id="defs1" /><g
     inkscape:label="Layer 1"
     inkscape:groupmode="layer"
     id="layer1"><circle
       style="fill:#61649e;fill-opacity:1;stroke-width:0.264583"
       id="path217"
       cx="2.9104166"
       cy="2.9104166"
       r="2.1654706" /><path
       style="fill:#ffffff;fill-opacity:1;stroke-width:0.264583"
       d="m 1.5276099,1.9802326 c 0.1376351,-0.015113 0.2732786,0.015366 0.4097516,0.020072 0.1342862,0.00463 0.2677858,-0.00223 0.4017571,0.0067 0.021046,0.0014 0.2064469,-0.00505 0.2240261,0.00668 0.012093,0.00807 -0.025395,0.1132996 -0.040338,0.1802566 -0.050377,0.2257279 -0.071347,0.4640248 -0.081473,0.6945578 -0.014007,0.3188621 -2.05e-5,0.6377842 -2.05e-5,0.9570601 0,0.062146 0.00144,0.117678 0.012981,0.176112 7.011e-4,0.00355 0.011785,0.022334 0.00907,0.025842 C 2.4397864,4.0780207 2.3116126,3.9767864 2.2916897,3.9605992 2.1588497,3.8526682 2.0131494,3.6467415 1.9582701,3.4818724 1.9273165,3.3888815 1.9134965,3.2898643 1.8766451,3.1978234 1.8085547,3.0277591 1.7263103,2.864441 1.67884,2.6857933 1.64767,2.5684896 1.6305873,2.4469018 1.5977119,2.3301144 c -0.00892,-0.031681 -0.094811,-0.2605143 -0.09197,-0.2772883 0.00422,-0.024917 0.014579,-0.048396 0.021868,-0.072593 z"
       id="path1391" /><path
       style="fill:#ffffff;fill-opacity:1;stroke-width:0.264583"
       d="M 2.1953725,2.6592747 C 2.4071705,2.5282633 2.6079004,2.3724891 2.8319751,2.2617633 3.0361988,2.1608469 3.2630385,2.0977468 3.4816015,2.0351255 3.5561526,2.0137654 3.6443697,1.9830672 3.7253878,1.9709331 3.8661091,1.9498569 4.01233,1.9185789 4.1433736,1.8873727 4.186193,1.877176 4.0874762,1.9554209 4.0580354,1.9881426 3.9788004,2.0762086 3.8809842,2.144945 3.7971859,2.2288809 3.5737318,2.452702 3.2125663,2.7092642 2.921187,2.8342259 2.8221326,2.8767066 2.7355241,2.9388908 2.6405517,2.987948 2.6288057,2.994018 2.6012457,3.020794 2.5926487,3.018155 2.5447407,3.003452 2.2208921,2.8135205 2.1928001,2.7596143 2.1773381,2.7299443 2.2209571,2.6808353 2.1953701,2.6592745 2.1633931,2.6323245 2.1083791,2.6725855 2.069952,2.6560845 2.006174,2.6287005 1.996136,2.5752425 1.9551462,2.5342525"
       id="path1393" /><path
       style="fill:#ffffff;fill-opacity:1;stroke-width:0.264583"
       d="m 2.3847232,2.736189 c 0.2881018,-0.046158 0.5860153,0.028184 0.8508743,0.1403469 0.1874602,0.079386 0.3711935,0.1670677 0.5573823,0.2486745 0.057614,0.025252 0.1163201,0.047965 0.1750164,0.070587 0.057523,0.022169 0.1422061,0.032826 0.1919634,0.069081 0.013139,0.00958 -0.043967,0.041524 -0.094408,0.088363 C 3.96841,3.4434451 3.8680223,3.5275726 3.7631933,3.6085502 3.6380181,3.7052448 3.5250924,3.8119486 3.3950962,3.9027761 c -0.0085,0.00594 -0.090649,0.080338 -0.09959,0.073437 C 3.1162011,3.8378095 2.8755641,3.5509644 2.7437445,3.3636812 2.7015723,3.3037647 2.6654786,3.2382348 2.6210361,3.179817 2.5060857,3.0287195 2.5547343,3.1130237 2.4849922,3.0031446 2.4691411,2.9781711 2.4183225,2.8967501 2.4093898,2.8664717 2.3968832,2.8240789 2.4103714,2.7721843 2.3847233,2.736189 2.3841967,2.7354482 2.2843846,2.6911715 2.2617889,2.6591522"
       id="path1395" /></g></svg>
